<mxfile host="app.diagrams.net" agent="Mozilla/5.0 (Windows NT 10.0; Win64; x64) AppleWebKit/537.36 (KHTML, like Gecko) Chrome/134.0.0.0 Safari/537.36" version="25.0.3">
  <diagram name="Stránka-1" id="s7uGZve95t0P6AHgvdYL">
    <mxGraphModel dx="1434" dy="1915" grid="1" gridSize="10" guides="1" tooltips="1" connect="1" arrows="1" fold="1" page="1" pageScale="1" pageWidth="1654" pageHeight="1169" math="0" shadow="0">
      <root>
        <mxCell id="0" />
        <mxCell id="1" parent="0" />
        <mxCell id="1UGIrWX7Iy0l2SpG3Klg-1" value="RE" style="swimlane;fontStyle=0;childLayout=stackLayout;horizontal=1;startSize=30;horizontalStack=0;resizeParent=1;resizeParentMax=0;resizeLast=0;collapsible=1;marginBottom=0;whiteSpace=wrap;html=1;strokeWidth=3;" parent="1" vertex="1">
          <mxGeometry x="50" y="-130" width="180" height="90" as="geometry" />
        </mxCell>
        <mxCell id="1UGIrWX7Iy0l2SpG3Klg-3" value="HDO 5x1.5" style="text;strokeColor=#9673a6;fillColor=#e1d5e7;align=left;verticalAlign=middle;spacingLeft=4;spacingRight=4;overflow=hidden;points=[[0,0.5],[1,0.5]];portConstraint=eastwest;rotatable=0;whiteSpace=wrap;html=1;strokeWidth=3;" parent="1UGIrWX7Iy0l2SpG3Klg-1" vertex="1">
          <mxGeometry y="30" width="180" height="30" as="geometry" />
        </mxCell>
        <mxCell id="1UGIrWX7Iy0l2SpG3Klg-2" value="Grid 4x10" style="text;strokeColor=#b85450;fillColor=#f8cecc;align=left;verticalAlign=middle;spacingLeft=4;spacingRight=4;overflow=hidden;points=[[0,0.5],[1,0.5]];portConstraint=eastwest;rotatable=0;whiteSpace=wrap;html=1;strokeWidth=3;" parent="1UGIrWX7Iy0l2SpG3Klg-1" vertex="1">
          <mxGeometry y="60" width="180" height="30" as="geometry" />
        </mxCell>
        <mxCell id="1UGIrWX7Iy0l2SpG3Klg-9" value="RH" style="swimlane;fontStyle=0;childLayout=stackLayout;horizontal=1;startSize=30;horizontalStack=0;resizeParent=1;resizeParentMax=0;resizeLast=0;collapsible=1;marginBottom=0;whiteSpace=wrap;html=1;strokeWidth=3;" parent="1" vertex="1">
          <mxGeometry x="290" y="160" width="180" height="180" as="geometry" />
        </mxCell>
        <mxCell id="1UGIrWX7Iy0l2SpG3Klg-11" value="HDO 5x1.5" style="text;strokeColor=#9673a6;fillColor=#e1d5e7;align=left;verticalAlign=middle;spacingLeft=4;spacingRight=4;overflow=hidden;points=[[0,0.5],[1,0.5]];portConstraint=eastwest;rotatable=0;whiteSpace=wrap;html=1;strokeWidth=3;" parent="1UGIrWX7Iy0l2SpG3Klg-9" vertex="1">
          <mxGeometry y="30" width="180" height="30" as="geometry" />
        </mxCell>
        <mxCell id="1UGIrWX7Iy0l2SpG3Klg-10" value="Grid 4x10" style="text;strokeColor=#b85450;fillColor=#f8cecc;align=left;verticalAlign=middle;spacingLeft=4;spacingRight=4;overflow=hidden;points=[[0,0.5],[1,0.5]];portConstraint=eastwest;rotatable=0;whiteSpace=wrap;html=1;strokeWidth=3;" parent="1UGIrWX7Iy0l2SpG3Klg-9" vertex="1">
          <mxGeometry y="60" width="180" height="30" as="geometry" />
        </mxCell>
        <mxCell id="1UGIrWX7Iy0l2SpG3Klg-23" value="Grid 5x6" style="text;strokeColor=#b85450;fillColor=#f8cecc;align=left;verticalAlign=middle;spacingLeft=4;spacingRight=4;overflow=hidden;points=[[0,0.5],[1,0.5]];portConstraint=eastwest;rotatable=0;whiteSpace=wrap;html=1;strokeWidth=3;" parent="1UGIrWX7Iy0l2SpG3Klg-9" vertex="1">
          <mxGeometry y="90" width="180" height="30" as="geometry" />
        </mxCell>
        <mxCell id="1UGIrWX7Iy0l2SpG3Klg-12" value="Load 5x6" style="text;strokeColor=#82b366;fillColor=#d5e8d4;align=left;verticalAlign=middle;spacingLeft=4;spacingRight=4;overflow=hidden;points=[[0,0.5],[1,0.5]];portConstraint=eastwest;rotatable=0;whiteSpace=wrap;html=1;strokeWidth=3;" parent="1UGIrWX7Iy0l2SpG3Klg-9" vertex="1">
          <mxGeometry y="120" width="180" height="30" as="geometry" />
        </mxCell>
        <mxCell id="1UGIrWX7Iy0l2SpG3Klg-44" value="Data Cat7" style="text;strokeColor=#d6b656;fillColor=#fff2cc;align=left;verticalAlign=middle;spacingLeft=4;spacingRight=4;overflow=hidden;points=[[0,0.5],[1,0.5]];portConstraint=eastwest;rotatable=0;whiteSpace=wrap;html=1;strokeWidth=3;" parent="1UGIrWX7Iy0l2SpG3Klg-9" vertex="1">
          <mxGeometry y="150" width="180" height="30" as="geometry" />
        </mxCell>
        <mxCell id="1UGIrWX7Iy0l2SpG3Klg-13" value="RP1" style="swimlane;fontStyle=0;childLayout=stackLayout;horizontal=1;startSize=30;horizontalStack=0;resizeParent=1;resizeParentMax=0;resizeLast=0;collapsible=1;marginBottom=0;whiteSpace=wrap;html=1;strokeWidth=3;" parent="1" vertex="1">
          <mxGeometry x="640" y="-120" width="180" height="150" as="geometry" />
        </mxCell>
        <mxCell id="1UGIrWX7Iy0l2SpG3Klg-15" value="HDO 5x1.5" style="text;strokeColor=#9673a6;fillColor=#e1d5e7;align=left;verticalAlign=middle;spacingLeft=4;spacingRight=4;overflow=hidden;points=[[0,0.5],[1,0.5]];portConstraint=eastwest;rotatable=0;whiteSpace=wrap;html=1;strokeWidth=3;" parent="1UGIrWX7Iy0l2SpG3Klg-13" vertex="1">
          <mxGeometry y="30" width="180" height="30" as="geometry" />
        </mxCell>
        <mxCell id="1UGIrWX7Iy0l2SpG3Klg-14" value="Grid 5x6" style="text;strokeColor=#b85450;fillColor=#f8cecc;align=left;verticalAlign=middle;spacingLeft=4;spacingRight=4;overflow=hidden;points=[[0,0.5],[1,0.5]];portConstraint=eastwest;rotatable=0;whiteSpace=wrap;html=1;strokeWidth=3;" parent="1UGIrWX7Iy0l2SpG3Klg-13" vertex="1">
          <mxGeometry y="60" width="180" height="30" as="geometry" />
        </mxCell>
        <mxCell id="1UGIrWX7Iy0l2SpG3Klg-16" value="Load 5x6" style="text;strokeColor=#82b366;fillColor=#d5e8d4;align=left;verticalAlign=middle;spacingLeft=4;spacingRight=4;overflow=hidden;points=[[0,0.5],[1,0.5]];portConstraint=eastwest;rotatable=0;whiteSpace=wrap;html=1;strokeWidth=3;" parent="1UGIrWX7Iy0l2SpG3Klg-13" vertex="1">
          <mxGeometry y="90" width="180" height="30" as="geometry" />
        </mxCell>
        <mxCell id="1UGIrWX7Iy0l2SpG3Klg-45" value="Data Cat7" style="text;strokeColor=#d6b656;fillColor=#fff2cc;align=left;verticalAlign=middle;spacingLeft=4;spacingRight=4;overflow=hidden;points=[[0,0.5],[1,0.5]];portConstraint=eastwest;rotatable=0;whiteSpace=wrap;html=1;strokeWidth=3;" parent="1UGIrWX7Iy0l2SpG3Klg-13" vertex="1">
          <mxGeometry y="120" width="180" height="30" as="geometry" />
        </mxCell>
        <mxCell id="1UGIrWX7Iy0l2SpG3Klg-17" value="FVE AC" style="swimlane;fontStyle=0;childLayout=stackLayout;horizontal=1;startSize=30;horizontalStack=0;resizeParent=1;resizeParentMax=0;resizeLast=0;collapsible=1;marginBottom=0;whiteSpace=wrap;html=1;strokeWidth=3;" parent="1" vertex="1">
          <mxGeometry x="990" y="240" width="180" height="150" as="geometry" />
        </mxCell>
        <mxCell id="1UGIrWX7Iy0l2SpG3Klg-20" value="HDO 5x1.5" style="text;strokeColor=#9673a6;fillColor=#e1d5e7;align=left;verticalAlign=middle;spacingLeft=4;spacingRight=4;overflow=hidden;points=[[0,0.5],[1,0.5]];portConstraint=eastwest;rotatable=0;whiteSpace=wrap;html=1;strokeWidth=3;" parent="1UGIrWX7Iy0l2SpG3Klg-17" vertex="1">
          <mxGeometry y="30" width="180" height="30" as="geometry" />
        </mxCell>
        <mxCell id="1UGIrWX7Iy0l2SpG3Klg-18" value="Grid 5x6" style="text;strokeColor=#b85450;fillColor=#f8cecc;align=left;verticalAlign=middle;spacingLeft=4;spacingRight=4;overflow=hidden;points=[[0,0.5],[1,0.5]];portConstraint=eastwest;rotatable=0;whiteSpace=wrap;html=1;strokeWidth=3;" parent="1UGIrWX7Iy0l2SpG3Klg-17" vertex="1">
          <mxGeometry y="60" width="180" height="30" as="geometry" />
        </mxCell>
        <mxCell id="1UGIrWX7Iy0l2SpG3Klg-19" value="Load 5x6" style="text;strokeColor=#82b366;fillColor=#d5e8d4;align=left;verticalAlign=middle;spacingLeft=4;spacingRight=4;overflow=hidden;points=[[0,0.5],[1,0.5]];portConstraint=eastwest;rotatable=0;whiteSpace=wrap;html=1;strokeWidth=3;" parent="1UGIrWX7Iy0l2SpG3Klg-17" vertex="1">
          <mxGeometry y="90" width="180" height="30" as="geometry" />
        </mxCell>
        <mxCell id="1UGIrWX7Iy0l2SpG3Klg-51" value="Data Cat7" style="text;strokeColor=#d6b656;fillColor=#fff2cc;align=left;verticalAlign=middle;spacingLeft=4;spacingRight=4;overflow=hidden;points=[[0,0.5],[1,0.5]];portConstraint=eastwest;rotatable=0;whiteSpace=wrap;html=1;strokeWidth=3;" parent="1UGIrWX7Iy0l2SpG3Klg-17" vertex="1">
          <mxGeometry y="120" width="180" height="30" as="geometry" />
        </mxCell>
        <mxCell id="1UGIrWX7Iy0l2SpG3Klg-22" value="" style="endArrow=none;html=1;rounded=0;fillColor=#e1d5e7;strokeColor=#9673a6;strokeWidth=3;edgeStyle=orthogonalEdgeStyle;" parent="1" source="1UGIrWX7Iy0l2SpG3Klg-3" target="1UGIrWX7Iy0l2SpG3Klg-11" edge="1">
          <mxGeometry width="50" height="50" relative="1" as="geometry">
            <mxPoint x="340" y="215" as="sourcePoint" />
            <mxPoint x="500" y="215" as="targetPoint" />
          </mxGeometry>
        </mxCell>
        <mxCell id="1UGIrWX7Iy0l2SpG3Klg-26" value="" style="endArrow=none;html=1;rounded=0;fillColor=#e1d5e7;strokeColor=#9673a6;strokeWidth=3;edgeStyle=orthogonalEdgeStyle;" parent="1" source="1UGIrWX7Iy0l2SpG3Klg-11" target="1UGIrWX7Iy0l2SpG3Klg-15" edge="1">
          <mxGeometry width="50" height="50" relative="1" as="geometry">
            <mxPoint x="610" y="262" as="sourcePoint" />
            <mxPoint x="760" y="210" as="targetPoint" />
          </mxGeometry>
        </mxCell>
        <mxCell id="1UGIrWX7Iy0l2SpG3Klg-27" value="" style="endArrow=none;html=1;rounded=0;fillColor=#e1d5e7;strokeColor=#9673a6;strokeWidth=3;edgeStyle=orthogonalEdgeStyle;" parent="1" source="1UGIrWX7Iy0l2SpG3Klg-15" target="1UGIrWX7Iy0l2SpG3Klg-20" edge="1">
          <mxGeometry width="50" height="50" relative="1" as="geometry">
            <mxPoint x="900" y="140" as="sourcePoint" />
            <mxPoint x="1040" y="140" as="targetPoint" />
          </mxGeometry>
        </mxCell>
        <mxCell id="1UGIrWX7Iy0l2SpG3Klg-36" value="RP2 - bez vystrojení" style="swimlane;fontStyle=0;childLayout=stackLayout;horizontal=1;startSize=30;horizontalStack=0;resizeParent=1;resizeParentMax=0;resizeLast=0;collapsible=1;marginBottom=0;whiteSpace=wrap;html=1;strokeWidth=3;" parent="1" vertex="1">
          <mxGeometry x="1130" y="-180" width="180" height="150" as="geometry" />
        </mxCell>
        <mxCell id="1UGIrWX7Iy0l2SpG3Klg-37" value="HDO 5x1.5" style="text;strokeColor=#9673a6;fillColor=#e1d5e7;align=left;verticalAlign=middle;spacingLeft=4;spacingRight=4;overflow=hidden;points=[[0,0.5],[1,0.5]];portConstraint=eastwest;rotatable=0;whiteSpace=wrap;html=1;strokeWidth=3;" parent="1UGIrWX7Iy0l2SpG3Klg-36" vertex="1">
          <mxGeometry y="30" width="180" height="30" as="geometry" />
        </mxCell>
        <mxCell id="1UGIrWX7Iy0l2SpG3Klg-38" value="Grid 5x6" style="text;strokeColor=#b85450;fillColor=#f8cecc;align=left;verticalAlign=middle;spacingLeft=4;spacingRight=4;overflow=hidden;points=[[0,0.5],[1,0.5]];portConstraint=eastwest;rotatable=0;whiteSpace=wrap;html=1;strokeWidth=3;" parent="1UGIrWX7Iy0l2SpG3Klg-36" vertex="1">
          <mxGeometry y="60" width="180" height="30" as="geometry" />
        </mxCell>
        <mxCell id="1UGIrWX7Iy0l2SpG3Klg-39" value="Load 5x6" style="text;strokeColor=#82b366;fillColor=#d5e8d4;align=left;verticalAlign=middle;spacingLeft=4;spacingRight=4;overflow=hidden;points=[[0,0.5],[1,0.5]];portConstraint=eastwest;rotatable=0;whiteSpace=wrap;html=1;strokeWidth=3;" parent="1UGIrWX7Iy0l2SpG3Klg-36" vertex="1">
          <mxGeometry y="90" width="180" height="30" as="geometry" />
        </mxCell>
        <mxCell id="1UGIrWX7Iy0l2SpG3Klg-52" value="Data Cat7" style="text;strokeColor=#d6b656;fillColor=#fff2cc;align=left;verticalAlign=middle;spacingLeft=4;spacingRight=4;overflow=hidden;points=[[0,0.5],[1,0.5]];portConstraint=eastwest;rotatable=0;whiteSpace=wrap;html=1;strokeWidth=3;" parent="1UGIrWX7Iy0l2SpG3Klg-36" vertex="1">
          <mxGeometry y="120" width="180" height="30" as="geometry" />
        </mxCell>
        <mxCell id="1UGIrWX7Iy0l2SpG3Klg-41" value="" style="endArrow=none;html=1;rounded=0;fillColor=#e1d5e7;strokeColor=#9673a6;exitX=1;exitY=0.5;exitDx=0;exitDy=0;entryX=0;entryY=0.5;entryDx=0;entryDy=0;strokeWidth=3;edgeStyle=orthogonalEdgeStyle;" parent="1" source="1UGIrWX7Iy0l2SpG3Klg-15" target="1UGIrWX7Iy0l2SpG3Klg-37" edge="1">
          <mxGeometry width="50" height="50" relative="1" as="geometry">
            <mxPoint x="990" y="90" as="sourcePoint" />
            <mxPoint x="1040" y="40" as="targetPoint" />
          </mxGeometry>
        </mxCell>
        <mxCell id="rhwyj6UH5brpqnjEd6f1-1" value="RD1" style="swimlane;fontStyle=0;childLayout=stackLayout;horizontal=1;startSize=30;horizontalStack=0;resizeParent=1;resizeParentMax=0;resizeLast=0;collapsible=1;marginBottom=0;whiteSpace=wrap;html=1;strokeWidth=3;" vertex="1" parent="1">
          <mxGeometry x="130" y="400" width="180" height="120" as="geometry" />
        </mxCell>
        <mxCell id="rhwyj6UH5brpqnjEd6f1-4" value="Grid 3x2.5" style="text;strokeColor=#b85450;fillColor=#f8cecc;align=left;verticalAlign=middle;spacingLeft=4;spacingRight=4;overflow=hidden;points=[[0,0.5],[1,0.5]];portConstraint=eastwest;rotatable=0;whiteSpace=wrap;html=1;strokeWidth=3;" vertex="1" parent="rhwyj6UH5brpqnjEd6f1-1">
          <mxGeometry y="30" width="180" height="30" as="geometry" />
        </mxCell>
        <mxCell id="rhwyj6UH5brpqnjEd6f1-5" value="Load 3x2.5" style="text;strokeColor=#82b366;fillColor=#d5e8d4;align=left;verticalAlign=middle;spacingLeft=4;spacingRight=4;overflow=hidden;points=[[0,0.5],[1,0.5]];portConstraint=eastwest;rotatable=0;whiteSpace=wrap;html=1;strokeWidth=3;" vertex="1" parent="rhwyj6UH5brpqnjEd6f1-1">
          <mxGeometry y="60" width="180" height="30" as="geometry" />
        </mxCell>
        <mxCell id="rhwyj6UH5brpqnjEd6f1-6" value="Data Cat7" style="text;strokeColor=#d6b656;fillColor=#fff2cc;align=left;verticalAlign=middle;spacingLeft=4;spacingRight=4;overflow=hidden;points=[[0,0.5],[1,0.5]];portConstraint=eastwest;rotatable=0;whiteSpace=wrap;html=1;strokeWidth=3;" vertex="1" parent="rhwyj6UH5brpqnjEd6f1-1">
          <mxGeometry y="90" width="180" height="30" as="geometry" />
        </mxCell>
        <mxCell id="rhwyj6UH5brpqnjEd6f1-7" value="" style="endArrow=none;html=1;rounded=0;fillColor=#fff2cc;strokeColor=#d6b656;strokeWidth=3;edgeStyle=orthogonalEdgeStyle;" edge="1" parent="1" source="rhwyj6UH5brpqnjEd6f1-6" target="1UGIrWX7Iy0l2SpG3Klg-9">
          <mxGeometry width="50" height="50" relative="1" as="geometry">
            <mxPoint x="70" y="510" as="sourcePoint" />
            <mxPoint x="247" y="370" as="targetPoint" />
          </mxGeometry>
        </mxCell>
        <mxCell id="rhwyj6UH5brpqnjEd6f1-8" value="" style="endArrow=none;html=1;rounded=0;fillColor=#f8cecc;strokeColor=#b85450;strokeWidth=3;edgeStyle=orthogonalEdgeStyle;" edge="1" parent="1" source="rhwyj6UH5brpqnjEd6f1-4" target="1UGIrWX7Iy0l2SpG3Klg-9">
          <mxGeometry width="50" height="50" relative="1" as="geometry">
            <mxPoint x="240" y="245" as="sourcePoint" />
            <mxPoint x="300" y="245" as="targetPoint" />
          </mxGeometry>
        </mxCell>
        <mxCell id="rhwyj6UH5brpqnjEd6f1-10" value="" style="endArrow=none;html=1;rounded=0;fillColor=#d5e8d4;strokeColor=#82b366;strokeWidth=3;edgeStyle=orthogonalEdgeStyle;" edge="1" parent="1" source="1UGIrWX7Iy0l2SpG3Klg-9" target="rhwyj6UH5brpqnjEd6f1-5">
          <mxGeometry width="50" height="50" relative="1" as="geometry">
            <mxPoint x="480" y="305" as="sourcePoint" />
            <mxPoint x="707" y="400" as="targetPoint" />
          </mxGeometry>
        </mxCell>
        <mxCell id="rhwyj6UH5brpqnjEd6f1-11" value="RD2" style="swimlane;fontStyle=0;childLayout=stackLayout;horizontal=1;startSize=30;horizontalStack=0;resizeParent=1;resizeParentMax=0;resizeLast=0;collapsible=1;marginBottom=0;whiteSpace=wrap;html=1;strokeWidth=3;" vertex="1" parent="1">
          <mxGeometry x="480" y="-320" width="180" height="120" as="geometry" />
        </mxCell>
        <mxCell id="rhwyj6UH5brpqnjEd6f1-12" value="Grid 3x2.5" style="text;strokeColor=#b85450;fillColor=#f8cecc;align=left;verticalAlign=middle;spacingLeft=4;spacingRight=4;overflow=hidden;points=[[0,0.5],[1,0.5]];portConstraint=eastwest;rotatable=0;whiteSpace=wrap;html=1;strokeWidth=3;" vertex="1" parent="rhwyj6UH5brpqnjEd6f1-11">
          <mxGeometry y="30" width="180" height="30" as="geometry" />
        </mxCell>
        <mxCell id="rhwyj6UH5brpqnjEd6f1-13" value="Load 3x2.5" style="text;strokeColor=#82b366;fillColor=#d5e8d4;align=left;verticalAlign=middle;spacingLeft=4;spacingRight=4;overflow=hidden;points=[[0,0.5],[1,0.5]];portConstraint=eastwest;rotatable=0;whiteSpace=wrap;html=1;strokeWidth=3;" vertex="1" parent="rhwyj6UH5brpqnjEd6f1-11">
          <mxGeometry y="60" width="180" height="30" as="geometry" />
        </mxCell>
        <mxCell id="rhwyj6UH5brpqnjEd6f1-14" value="Data Cat7" style="text;strokeColor=#d6b656;fillColor=#fff2cc;align=left;verticalAlign=middle;spacingLeft=4;spacingRight=4;overflow=hidden;points=[[0,0.5],[1,0.5]];portConstraint=eastwest;rotatable=0;whiteSpace=wrap;html=1;strokeWidth=3;" vertex="1" parent="rhwyj6UH5brpqnjEd6f1-11">
          <mxGeometry y="90" width="180" height="30" as="geometry" />
        </mxCell>
        <mxCell id="rhwyj6UH5brpqnjEd6f1-17" value="" style="endArrow=none;html=1;rounded=0;fillColor=#f8cecc;strokeColor=#b85450;strokeWidth=3;edgeStyle=orthogonalEdgeStyle;" edge="1" parent="1" source="1UGIrWX7Iy0l2SpG3Klg-13" target="rhwyj6UH5brpqnjEd6f1-12">
          <mxGeometry width="50" height="50" relative="1" as="geometry">
            <mxPoint x="420" y="-130" as="sourcePoint" />
            <mxPoint x="860" y="-127" as="targetPoint" />
          </mxGeometry>
        </mxCell>
        <mxCell id="rhwyj6UH5brpqnjEd6f1-18" value="" style="endArrow=none;html=1;rounded=0;fillColor=#d5e8d4;strokeColor=#82b366;strokeWidth=3;edgeStyle=orthogonalEdgeStyle;" edge="1" parent="1" source="rhwyj6UH5brpqnjEd6f1-13" target="1UGIrWX7Iy0l2SpG3Klg-13">
          <mxGeometry width="50" height="50" relative="1" as="geometry">
            <mxPoint x="1150" y="-180" as="sourcePoint" />
            <mxPoint x="1080" y="80" as="targetPoint" />
          </mxGeometry>
        </mxCell>
        <mxCell id="rhwyj6UH5brpqnjEd6f1-19" value="" style="endArrow=none;html=1;rounded=0;fillColor=#fff2cc;strokeColor=#d6b656;strokeWidth=3;edgeStyle=orthogonalEdgeStyle;" edge="1" parent="1" source="1UGIrWX7Iy0l2SpG3Klg-13" target="rhwyj6UH5brpqnjEd6f1-14">
          <mxGeometry width="50" height="50" relative="1" as="geometry">
            <mxPoint x="1090" y="150" as="sourcePoint" />
            <mxPoint x="1160" y="-110" as="targetPoint" />
          </mxGeometry>
        </mxCell>
        <mxCell id="rhwyj6UH5brpqnjEd6f1-20" value="RD3 bez vystrojení" style="swimlane;fontStyle=0;childLayout=stackLayout;horizontal=1;startSize=30;horizontalStack=0;resizeParent=1;resizeParentMax=0;resizeLast=0;collapsible=1;marginBottom=0;whiteSpace=wrap;html=1;strokeWidth=3;" vertex="1" parent="1">
          <mxGeometry x="990" y="-350" width="180" height="120" as="geometry" />
        </mxCell>
        <mxCell id="rhwyj6UH5brpqnjEd6f1-21" value="Grid 3x2.5" style="text;strokeColor=#b85450;fillColor=#f8cecc;align=left;verticalAlign=middle;spacingLeft=4;spacingRight=4;overflow=hidden;points=[[0,0.5],[1,0.5]];portConstraint=eastwest;rotatable=0;whiteSpace=wrap;html=1;strokeWidth=3;" vertex="1" parent="rhwyj6UH5brpqnjEd6f1-20">
          <mxGeometry y="30" width="180" height="30" as="geometry" />
        </mxCell>
        <mxCell id="rhwyj6UH5brpqnjEd6f1-22" value="Load 3x2.5" style="text;strokeColor=#82b366;fillColor=#d5e8d4;align=left;verticalAlign=middle;spacingLeft=4;spacingRight=4;overflow=hidden;points=[[0,0.5],[1,0.5]];portConstraint=eastwest;rotatable=0;whiteSpace=wrap;html=1;strokeWidth=3;" vertex="1" parent="rhwyj6UH5brpqnjEd6f1-20">
          <mxGeometry y="60" width="180" height="30" as="geometry" />
        </mxCell>
        <mxCell id="rhwyj6UH5brpqnjEd6f1-23" value="Data Cat7" style="text;strokeColor=#d6b656;fillColor=#fff2cc;align=left;verticalAlign=middle;spacingLeft=4;spacingRight=4;overflow=hidden;points=[[0,0.5],[1,0.5]];portConstraint=eastwest;rotatable=0;whiteSpace=wrap;html=1;strokeWidth=3;" vertex="1" parent="rhwyj6UH5brpqnjEd6f1-20">
          <mxGeometry y="90" width="180" height="30" as="geometry" />
        </mxCell>
        <mxCell id="rhwyj6UH5brpqnjEd6f1-24" value="" style="endArrow=none;html=1;rounded=0;fillColor=#f8cecc;strokeColor=#b85450;strokeWidth=3;edgeStyle=orthogonalEdgeStyle;" edge="1" parent="1" source="rhwyj6UH5brpqnjEd6f1-21" target="1UGIrWX7Iy0l2SpG3Klg-36">
          <mxGeometry width="50" height="50" relative="1" as="geometry">
            <mxPoint x="1050" y="-200.5" as="sourcePoint" />
            <mxPoint x="990" y="-345.5" as="targetPoint" />
          </mxGeometry>
        </mxCell>
        <mxCell id="rhwyj6UH5brpqnjEd6f1-25" value="" style="endArrow=none;html=1;rounded=0;fillColor=#d5e8d4;strokeColor=#82b366;strokeWidth=3;edgeStyle=orthogonalEdgeStyle;" edge="1" parent="1" source="rhwyj6UH5brpqnjEd6f1-22" target="1UGIrWX7Iy0l2SpG3Klg-36">
          <mxGeometry width="50" height="50" relative="1" as="geometry">
            <mxPoint x="1240" y="-317.5" as="sourcePoint" />
            <mxPoint x="1300" y="-202.5" as="targetPoint" />
          </mxGeometry>
        </mxCell>
        <mxCell id="rhwyj6UH5brpqnjEd6f1-26" value="" style="endArrow=none;html=1;rounded=0;fillColor=#fff2cc;strokeColor=#d6b656;strokeWidth=3;edgeStyle=orthogonalEdgeStyle;" edge="1" parent="1" source="1UGIrWX7Iy0l2SpG3Klg-36" target="rhwyj6UH5brpqnjEd6f1-23">
          <mxGeometry width="50" height="50" relative="1" as="geometry">
            <mxPoint x="1320" y="-235" as="sourcePoint" />
            <mxPoint x="1260" y="-320" as="targetPoint" />
          </mxGeometry>
        </mxCell>
        <mxCell id="1UGIrWX7Iy0l2SpG3Klg-57" value="Data" parent="0" />
        <mxCell id="1UGIrWX7Iy0l2SpG3Klg-53" value="" style="endArrow=none;html=1;rounded=0;fillColor=#fff2cc;strokeColor=#d6b656;strokeWidth=3;entryX=0;entryY=0.5;entryDx=0;entryDy=0;edgeStyle=orthogonalEdgeStyle;" parent="1UGIrWX7Iy0l2SpG3Klg-57" source="1UGIrWX7Iy0l2SpG3Klg-44" target="1UGIrWX7Iy0l2SpG3Klg-45" edge="1">
          <mxGeometry width="50" height="50" relative="1" as="geometry">
            <mxPoint x="446" y="320" as="sourcePoint" />
            <mxPoint x="707" y="389" as="targetPoint" />
            <Array as="points">
              <mxPoint x="580" y="325" />
              <mxPoint x="580" y="5" />
            </Array>
          </mxGeometry>
        </mxCell>
        <mxCell id="1UGIrWX7Iy0l2SpG3Klg-54" value="" style="endArrow=none;html=1;rounded=0;fillColor=#fff2cc;strokeColor=#d6b656;strokeWidth=3;exitX=1;exitY=0.5;exitDx=0;exitDy=0;edgeStyle=orthogonalEdgeStyle;" parent="1UGIrWX7Iy0l2SpG3Klg-57" source="1UGIrWX7Iy0l2SpG3Klg-45" target="1UGIrWX7Iy0l2SpG3Klg-51" edge="1">
          <mxGeometry width="50" height="50" relative="1" as="geometry">
            <mxPoint x="428" y="320" as="sourcePoint" />
            <mxPoint x="709" y="210" as="targetPoint" />
          </mxGeometry>
        </mxCell>
        <mxCell id="1UGIrWX7Iy0l2SpG3Klg-56" value="" style="endArrow=none;html=1;rounded=0;exitX=1;exitY=0.5;exitDx=0;exitDy=0;fillColor=#fff2cc;strokeColor=#d6b656;strokeWidth=3;edgeStyle=orthogonalEdgeStyle;" parent="1UGIrWX7Iy0l2SpG3Klg-57" source="1UGIrWX7Iy0l2SpG3Klg-51" target="1UGIrWX7Iy0l2SpG3Klg-52" edge="1">
          <mxGeometry width="50" height="50" relative="1" as="geometry">
            <mxPoint x="780" y="320" as="sourcePoint" />
            <mxPoint x="1140" y="185" as="targetPoint" />
          </mxGeometry>
        </mxCell>
        <mxCell id="1UGIrWX7Iy0l2SpG3Klg-58" value="Grid" parent="0" />
        <mxCell id="1UGIrWX7Iy0l2SpG3Klg-31" value="" style="endArrow=none;html=1;rounded=0;exitX=1;exitY=0.5;exitDx=0;exitDy=0;fillColor=#f8cecc;strokeColor=#b85450;strokeWidth=3;edgeStyle=orthogonalEdgeStyle;" parent="1UGIrWX7Iy0l2SpG3Klg-58" source="1UGIrWX7Iy0l2SpG3Klg-23" target="1UGIrWX7Iy0l2SpG3Klg-18" edge="1">
          <mxGeometry width="50" height="50" relative="1" as="geometry">
            <mxPoint x="660" y="310" as="sourcePoint" />
            <mxPoint x="710" y="260" as="targetPoint" />
          </mxGeometry>
        </mxCell>
        <mxCell id="1UGIrWX7Iy0l2SpG3Klg-25" value="" style="endArrow=none;html=1;rounded=0;fillColor=#f8cecc;strokeColor=#b85450;strokeWidth=3;edgeStyle=orthogonalEdgeStyle;" parent="1UGIrWX7Iy0l2SpG3Klg-58" source="1UGIrWX7Iy0l2SpG3Klg-23" target="1UGIrWX7Iy0l2SpG3Klg-14" edge="1">
          <mxGeometry width="50" height="50" relative="1" as="geometry">
            <mxPoint x="650" y="245" as="sourcePoint" />
            <mxPoint x="780" y="245" as="targetPoint" />
          </mxGeometry>
        </mxCell>
        <mxCell id="1UGIrWX7Iy0l2SpG3Klg-42" value="" style="endArrow=none;html=1;rounded=0;fillColor=#f8cecc;strokeColor=#b85450;strokeWidth=3;edgeStyle=orthogonalEdgeStyle;" parent="1UGIrWX7Iy0l2SpG3Klg-58" source="1UGIrWX7Iy0l2SpG3Klg-14" target="1UGIrWX7Iy0l2SpG3Klg-38" edge="1">
          <mxGeometry width="50" height="50" relative="1" as="geometry">
            <mxPoint x="720" y="30" as="sourcePoint" />
            <mxPoint x="1160" y="33" as="targetPoint" />
          </mxGeometry>
        </mxCell>
        <mxCell id="1UGIrWX7Iy0l2SpG3Klg-21" value="" style="endArrow=none;html=1;rounded=0;fillColor=#f8cecc;strokeColor=#b85450;strokeWidth=3;edgeStyle=orthogonalEdgeStyle;" parent="1UGIrWX7Iy0l2SpG3Klg-58" source="1UGIrWX7Iy0l2SpG3Klg-2" target="1UGIrWX7Iy0l2SpG3Klg-10" edge="1">
          <mxGeometry width="50" height="50" relative="1" as="geometry">
            <mxPoint x="660" y="410" as="sourcePoint" />
            <mxPoint x="710" y="360" as="targetPoint" />
            <Array as="points">
              <mxPoint x="240" y="-55" />
              <mxPoint x="240" y="235" />
            </Array>
          </mxGeometry>
        </mxCell>
        <mxCell id="1UGIrWX7Iy0l2SpG3Klg-59" value="Load" parent="0" />
        <mxCell id="1UGIrWX7Iy0l2SpG3Klg-32" value="" style="endArrow=none;html=1;rounded=0;fillColor=#d5e8d4;strokeColor=#82b366;strokeWidth=3;edgeStyle=orthogonalEdgeStyle;" parent="1UGIrWX7Iy0l2SpG3Klg-59" source="1UGIrWX7Iy0l2SpG3Klg-12" target="1UGIrWX7Iy0l2SpG3Klg-33" edge="1">
          <mxGeometry width="50" height="50" relative="1" as="geometry">
            <mxPoint x="480" y="275" as="sourcePoint" />
            <mxPoint x="950" y="278" as="targetPoint" />
            <Array as="points">
              <mxPoint x="680" y="295" />
              <mxPoint x="680" y="450" />
            </Array>
          </mxGeometry>
        </mxCell>
        <mxCell id="1UGIrWX7Iy0l2SpG3Klg-35" value="" style="endArrow=none;html=1;rounded=0;fillColor=#d5e8d4;strokeColor=#82b366;strokeWidth=3;entryX=0;entryY=0.5;entryDx=0;entryDy=0;edgeStyle=orthogonalEdgeStyle;" parent="1UGIrWX7Iy0l2SpG3Klg-59" source="1UGIrWX7Iy0l2SpG3Klg-33" target="1UGIrWX7Iy0l2SpG3Klg-16" edge="1">
          <mxGeometry width="50" height="50" relative="1" as="geometry">
            <mxPoint x="760" y="327" as="sourcePoint" />
            <mxPoint x="950" y="315" as="targetPoint" />
          </mxGeometry>
        </mxCell>
        <mxCell id="1UGIrWX7Iy0l2SpG3Klg-34" value="" style="endArrow=none;html=1;rounded=0;fillColor=#d5e8d4;strokeColor=#82b366;strokeWidth=3;edgeStyle=orthogonalEdgeStyle;" parent="1UGIrWX7Iy0l2SpG3Klg-59" source="1UGIrWX7Iy0l2SpG3Klg-33" target="1UGIrWX7Iy0l2SpG3Klg-19" edge="1">
          <mxGeometry width="50" height="50" relative="1" as="geometry">
            <mxPoint x="790" y="345" as="sourcePoint" />
            <mxPoint x="990" y="360" as="targetPoint" />
          </mxGeometry>
        </mxCell>
        <mxCell id="1UGIrWX7Iy0l2SpG3Klg-43" value="" style="endArrow=none;html=1;rounded=0;fillColor=#d5e8d4;strokeColor=#82b366;strokeWidth=3;edgeStyle=orthogonalEdgeStyle;" parent="1UGIrWX7Iy0l2SpG3Klg-59" source="1UGIrWX7Iy0l2SpG3Klg-33" target="1UGIrWX7Iy0l2SpG3Klg-39" edge="1">
          <mxGeometry width="50" height="50" relative="1" as="geometry">
            <mxPoint x="780" y="387" as="sourcePoint" />
            <mxPoint x="965" y="324" as="targetPoint" />
            <Array as="points">
              <mxPoint x="1350" y="450" />
              <mxPoint x="1350" y="-75" />
            </Array>
          </mxGeometry>
        </mxCell>
        <mxCell id="1UGIrWX7Iy0l2SpG3Klg-33" value="Wago 5x6" style="whiteSpace=wrap;html=1;aspect=fixed;fillColor=#d5e8d4;strokeColor=#82b366;strokeWidth=3;" parent="1UGIrWX7Iy0l2SpG3Klg-59" vertex="1">
          <mxGeometry x="697" y="410" width="80" height="80" as="geometry" />
        </mxCell>
      </root>
    </mxGraphModel>
  </diagram>
</mxfile>
